<svg width="80" height="9" viewBox="0 0 80 9" fill="none" xmlns="http://www.w3.org/2000/svg">
<path d="M-8.7887e-05 8.56799V0.167993H1.95591L5.43591 5.87999H4.40391L7.78791 0.167993H9.74391L9.76791 8.56799H7.58391L7.55991 3.49199H7.93191L5.39991 7.73999H4.34391L1.73991 3.49199H2.19591V8.56799H-8.7887e-05ZM14.1131 3.41999H18.0131V5.19599H14.1131V3.41999ZM14.2811 6.73199H18.6731V8.56799H11.9291V0.167993H18.5171V2.00399H14.2811V6.73199ZM20.4716 8.56799V0.167993H22.4276L25.9076 5.87999H24.8756L28.2596 0.167993H30.2156L30.2396 8.56799H28.0556L28.0316 3.49199H28.4036L25.8716 7.73999H24.8156L22.2116 3.49199H22.6676V8.56799H20.4716ZM36.6368 8.73599C35.9648 8.73599 35.3448 8.62799 34.7768 8.41199C34.2088 8.19599 33.7128 7.89199 33.2888 7.49999C32.8728 7.09999 32.5488 6.63599 32.3168 6.10799C32.0848 5.57999 31.9688 4.99999 31.9688 4.36799C31.9688 3.73599 32.0848 3.15599 32.3168 2.62799C32.5488 2.09999 32.8728 1.63999 33.2888 1.24799C33.7128 0.847993 34.2088 0.539993 34.7768 0.323993C35.3448 0.107993 35.9648 -7.39098e-06 36.6368 -7.39098e-06C37.3168 -7.39098e-06 37.9368 0.107993 38.4968 0.323993C39.0648 0.539993 39.5568 0.847993 39.9728 1.24799C40.3888 1.63999 40.7128 2.09999 40.9448 2.62799C41.1848 3.15599 41.3048 3.73599 41.3048 4.36799C41.3048 4.99999 41.1848 5.58399 40.9448 6.11999C40.7128 6.64799 40.3888 7.10799 39.9728 7.49999C39.5568 7.89199 39.0648 8.19599 38.4968 8.41199C37.9368 8.62799 37.3168 8.73599 36.6368 8.73599ZM36.6368 6.76799C36.9568 6.76799 37.2528 6.71199 37.5248 6.59999C37.8048 6.48799 38.0448 6.32799 38.2448 6.11999C38.4528 5.90399 38.6128 5.64799 38.7248 5.35199C38.8448 5.05599 38.9048 4.72799 38.9048 4.36799C38.9048 3.99999 38.8448 3.67199 38.7248 3.38399C38.6128 3.08799 38.4528 2.83599 38.2448 2.62799C38.0448 2.41199 37.8048 2.24799 37.5248 2.13599C37.2528 2.02399 36.9568 1.96799 36.6368 1.96799C36.3168 1.96799 36.0168 2.02399 35.7368 2.13599C35.4648 2.24799 35.2248 2.41199 35.0168 2.62799C34.8168 2.83599 34.6568 3.08799 34.5368 3.38399C34.4248 3.67199 34.3688 3.99999 34.3688 4.36799C34.3688 4.72799 34.4248 5.05599 34.5368 5.35199C34.6568 5.64799 34.8168 5.90399 35.0168 6.11999C35.2248 6.32799 35.4648 6.48799 35.7368 6.59999C36.0168 6.71199 36.3168 6.76799 36.6368 6.76799ZM43.0293 8.56799V0.167993H46.8693C47.6373 0.167993 48.2973 0.291993 48.8493 0.539993C49.4093 0.787993 49.8413 1.14799 50.1453 1.61999C50.4493 2.08399 50.6013 2.63599 50.6013 3.27599C50.6013 3.90799 50.4493 4.45599 50.1453 4.91999C49.8413 5.37599 49.4093 5.72799 48.8493 5.97599C48.2973 6.21599 47.6373 6.33599 46.8693 6.33599H44.3493L45.4053 5.33999V8.56799H43.0293ZM48.2253 8.56799L46.1373 5.50799H48.6693L50.7693 8.56799H48.2253ZM45.4053 5.59199L44.3493 4.49999H46.7253C47.2213 4.49999 47.5893 4.39199 47.8293 4.17599C48.0773 3.95999 48.2013 3.65999 48.2013 3.27599C48.2013 2.88399 48.0773 2.57999 47.8293 2.36399C47.5893 2.14799 47.2213 2.03999 46.7253 2.03999H44.3493L45.4053 0.947993V5.59199ZM54.5761 3.41999H58.4761V5.19599H54.5761V3.41999ZM54.7441 6.73199H59.1361V8.56799H52.3921V0.167993H58.9801V2.00399H54.7441V6.73199ZM60.9346 8.56799V0.167993H65.2306C66.3346 0.167993 67.1586 0.371993 67.7026 0.779993C68.2466 1.17999 68.5186 1.70799 68.5186 2.36399C68.5186 2.79599 68.4026 3.17599 68.1706 3.50399C67.9466 3.82399 67.6266 4.07999 67.2106 4.27199C66.8026 4.45599 66.3146 4.54799 65.7466 4.54799L65.9866 3.97199C66.5786 3.97199 67.0946 4.06399 67.5346 4.24799C67.9746 4.42399 68.3146 4.68399 68.5546 5.02799C68.8026 5.36399 68.9266 5.77599 68.9266 6.26399C68.9266 6.99199 68.6306 7.55999 68.0386 7.96799C67.4546 8.36799 66.5986 8.56799 65.4706 8.56799H60.9346ZM63.2866 6.85199H65.2786C65.6866 6.85199 65.9946 6.78399 66.2026 6.64799C66.4186 6.50399 66.5266 6.28799 66.5266 5.99999C66.5266 5.71199 66.4186 5.49999 66.2026 5.36399C65.9946 5.21999 65.6866 5.14799 65.2786 5.14799H63.1186V3.50399H64.9186C65.3186 3.50399 65.6186 3.43599 65.8186 3.29999C66.0186 3.16399 66.1186 2.95999 66.1186 2.68799C66.1186 2.41599 66.0186 2.21599 65.8186 2.08799C65.6186 1.95199 65.3186 1.88399 64.9186 1.88399H63.2866V6.85199ZM69.6293 8.56799L73.3373 0.167993H75.6773L79.3973 8.56799H76.9253L74.0213 1.33199H74.9573L72.0533 8.56799H69.6293ZM71.6573 6.93599L72.2693 5.18399H76.3733L76.9853 6.93599H71.6573Z" fill="white"/>
</svg>
